<svg width="500" height="500" viewBox="0 0 500 500" fill="none" xmlns="http://www.w3.org/2000/svg">
<path d="M0 0H250C388.071 0 500 111.929 500 250V250C500 388.071 388.071 500 250 500H0V0Z" fill="#171717"/>
<g clip-path="url(#clip0_775_563)">
<path d="M78.365 228.58C73.505 231.22 68.655 233.98 64.745 237.58C62.8529 239.184 61.3226 241.171 60.255 243.41C59.8374 244.296 59.6428 245.27 59.6881 246.248C59.7334 247.226 60.0173 248.178 60.515 249.02C61.0638 249.927 61.7371 250.751 62.515 251.47C63.3817 252.262 64.3041 252.991 65.275 253.65C67.387 255.023 69.6156 256.208 71.935 257.19C76.803 259.23 81.8171 260.901 86.935 262.19C97.3863 264.834 107.98 266.877 118.665 268.31C124.035 269.05 129.415 269.74 134.815 270.31C140.215 270.88 145.625 271.39 151.045 271.88C156.465 272.37 161.895 272.75 167.325 273.09C172.755 273.43 178.195 273.77 183.645 274.01C194.525 274.49 205.425 274.88 216.325 275.01C227.225 275.14 238.135 275.27 249.045 275.11C259.955 274.95 270.845 274.79 281.735 274.34C292.625 273.89 303.495 273.34 314.335 272.61C325.175 271.88 336.015 270.91 346.785 269.75C357.555 268.59 368.275 267.11 378.865 265.34C384.165 264.44 389.412 263.41 394.605 262.25C399.795 261.11 404.925 259.82 409.875 258.25C414.666 256.824 419.329 254.998 423.815 252.79C425.728 251.844 427.529 250.687 429.185 249.34C429.768 248.841 430.309 248.296 430.805 247.71C431.04 247.413 431.248 247.095 431.425 246.76C431.533 246.537 431.568 246.285 431.525 246.04C431.386 245.451 431.134 244.895 430.785 244.4C429.534 242.752 428.04 241.302 426.355 240.1C422.211 237.152 417.758 234.664 413.075 232.68C408.255 230.49 403.195 228.6 398.075 226.82C392.955 225.04 387.725 223.42 382.465 221.87C371.925 218.82 361.225 216.08 350.465 213.44C361.586 213.679 372.687 214.487 383.725 215.86C394.941 217.168 406.029 219.406 416.875 222.55C422.618 224.267 428.15 226.625 433.365 229.58C436.387 231.279 439.112 233.458 441.435 236.03C441.755 236.4 442.065 236.82 442.365 237.21C442.696 237.622 442.997 238.056 443.265 238.51C443.545 238.97 443.825 239.44 444.085 239.92C444.345 240.4 444.565 240.99 444.785 241.53C445.71 243.887 446.053 246.433 445.785 248.95C445.488 251.328 444.712 253.621 443.505 255.69C442.49 257.408 441.271 258.996 439.875 260.42C437.483 262.83 434.814 264.948 431.925 266.73C426.779 269.909 421.341 272.588 415.685 274.73C404.942 278.799 393.911 282.064 382.685 284.5C371.685 287.06 360.545 288.93 349.435 290.59C338.325 292.25 327.175 293.4 316.035 294.41C304.895 295.42 293.725 296 282.565 296.41C271.405 296.82 260.235 296.98 249.085 296.9C237.935 296.82 226.765 296.53 215.615 295.9C204.465 295.27 193.325 294.53 182.215 293.36C176.655 292.78 171.105 292.19 165.555 291.46C160.005 290.73 154.475 289.92 148.945 289.05C143.415 288.18 137.945 287.16 132.395 286.05C126.845 284.94 121.395 283.79 115.935 282.44C104.913 279.848 94.0868 276.486 83.535 272.38C78.1455 270.262 72.9382 267.707 67.965 264.74C65.3893 263.17 62.9566 261.377 60.695 259.38C59.5168 258.309 58.4328 257.138 57.455 255.88C56.4055 254.522 55.5692 253.011 54.975 251.4C54.3335 249.681 54.1107 247.833 54.325 246.01C54.5341 244.26 55.1543 242.585 56.135 241.12C56.989 239.801 58.026 238.609 59.215 237.58C60.3278 236.601 61.5221 235.717 62.785 234.94C65.2235 233.474 67.7868 232.226 70.445 231.21C73.0332 230.185 75.6775 229.307 78.365 228.58Z" fill="#6F5BDE"/>
<path d="M95.565 254.78C94.9794 229.311 100.754 204.097 112.365 181.42L113.425 179.32L114.585 177.32L116.895 173.23L119.395 169.23C120.225 167.9 121.055 166.58 121.975 165.32L124.665 161.49C125.565 160.22 126.555 159.02 127.495 157.78C129.355 155.29 131.435 152.96 133.495 150.6C141.706 141.36 151.011 133.153 161.205 126.16C171.329 119.285 182.261 113.682 193.755 109.48C196.625 108.48 199.475 107.48 202.405 106.65C203.865 106.24 205.305 105.78 206.775 105.41L211.195 104.35L213.405 103.84L215.625 103.42L220.075 102.6C221.565 102.37 223.075 102.19 224.555 101.98C226.035 101.77 227.555 101.55 229.035 101.45C232.035 101.21 235.035 100.9 238.035 100.87C239.535 100.82 241.035 100.75 242.525 100.74L247.015 100.82C252.982 100.927 258.935 101.431 264.835 102.33C276.552 104.087 288.003 107.298 298.925 111.89C287.766 108.31 276.203 106.143 264.505 105.44C258.71 105.075 252.897 105.095 247.105 105.5L242.775 105.81C241.335 105.95 239.905 106.15 238.475 106.32C235.595 106.6 232.765 107.16 229.935 107.64C228.505 107.85 227.115 108.21 225.705 108.52C224.295 108.83 222.905 109.14 221.515 109.52L217.365 110.68L215.305 111.26L213.305 111.93L209.235 113.29C207.885 113.76 206.565 114.29 205.235 114.82C202.555 115.82 199.975 117.03 197.385 118.18C176.88 127.744 159.098 142.294 145.665 160.5C144.065 162.78 142.395 164.99 140.945 167.36C140.205 168.54 139.425 169.68 138.725 170.87L136.645 174.47C135.935 175.65 135.305 176.89 134.645 178.12L132.755 181.8L131.055 185.56L130.195 187.44L129.435 189.36C121.213 209.592 118.167 231.555 120.575 253.26L95.565 254.78Z" fill="#6F5BDE"/>
<path d="M387.565 278.011C379.648 311.033 360.147 340.12 332.607 359.987C305.066 379.853 271.313 389.181 237.479 386.276C203.645 383.371 171.976 368.426 148.225 344.155C124.474 319.885 110.217 287.9 108.045 254.011" stroke="#6F5BDE" stroke-width="25" stroke-miterlimit="10"/>
</g>
<defs>
<clipPath id="clip0_775_563">
<rect width="391.61" height="298.54" fill="white" transform="translate(54.195 100.73)"/>
</clipPath>
</defs>
</svg>
