<svg width="20" height="21" viewBox="0 0 20 21" fill="none" xmlns="http://www.w3.org/2000/svg">
<path d="M16.9308 3.96299C15.6561 3.37809 14.2892 2.94716 12.8599 2.70035C12.8339 2.69558 12.8079 2.70749 12.7945 2.73129C12.6187 3.04397 12.4239 3.45189 12.2876 3.77251C10.7503 3.54237 9.22099 3.54237 7.71527 3.77251C7.57887 3.44476 7.37707 3.04397 7.20048 2.73129C7.18707 2.70828 7.16107 2.69638 7.13504 2.70035C5.70659 2.94637 4.33963 3.3773 3.06411 3.96299C3.05307 3.96775 3.04361 3.97569 3.03732 3.986C0.444493 7.85964 -0.265792 11.6381 0.0826501 15.3696C0.0842267 15.3879 0.0944749 15.4054 0.108665 15.4165C1.81934 16.6727 3.47642 17.4354 5.10273 17.9409C5.12876 17.9489 5.15634 17.9394 5.1729 17.9179C5.55761 17.3926 5.90054 16.8386 6.19456 16.2561C6.21192 16.222 6.19535 16.1815 6.15989 16.168C5.61594 15.9617 5.098 15.7101 4.59977 15.4244C4.56037 15.4014 4.55721 15.345 4.59347 15.318C4.69831 15.2395 4.80318 15.1577 4.9033 15.0752C4.92141 15.0601 4.94665 15.0569 4.96794 15.0665C8.24107 16.5608 11.7846 16.5608 15.0191 15.0665C15.0404 15.0561 15.0657 15.0593 15.0846 15.0744C15.1847 15.1569 15.2895 15.2395 15.3952 15.318C15.4314 15.345 15.4291 15.4014 15.3897 15.4244C14.8914 15.7156 14.3735 15.9617 13.8288 16.1672C13.7933 16.1807 13.7775 16.222 13.7949 16.2561C14.0952 16.8378 14.4381 17.3917 14.8157 17.9171C14.8315 17.9394 14.8599 17.9489 14.8859 17.9409C16.5201 17.4354 18.1772 16.6727 19.8879 15.4165C19.9028 15.4054 19.9123 15.3887 19.9139 15.3704C20.3309 11.0563 19.2154 7.30887 16.9568 3.98679C16.9513 3.97569 16.9419 3.96775 16.9308 3.96299ZM6.68335 13.0975C5.69792 13.0975 4.88594 12.1928 4.88594 11.0817C4.88594 9.97065 5.68217 9.06595 6.68335 9.06595C7.69239 9.06595 8.49651 9.97859 8.48073 11.0817C8.48073 12.1928 7.68451 13.0975 6.68335 13.0975ZM13.329 13.0975C12.3435 13.0975 11.5316 12.1928 11.5316 11.0817C11.5316 9.97065 12.3278 9.06595 13.329 9.06595C14.338 9.06595 15.1421 9.97859 15.1264 11.0817C15.1264 12.1928 14.338 13.0975 13.329 13.0975Z" fill="white"/>
</svg>
