<svg width="25" height="24" viewBox="0 0 25 24" fill="none" xmlns="http://www.w3.org/2000/svg">
<path fill-rule="evenodd" clip-rule="evenodd" d="M11.5362 18.8233C10.4338 19.9257 8.5488 19.1449 8.5488 17.5858L8.5488 6.41427C8.5488 4.85519 10.4338 4.0744 11.5362 5.17683L16.7685 10.4091C17.6471 11.2877 17.6471 12.7124 16.7685 13.591L11.5362 18.8233ZM10.0488 17.5858C10.0488 17.8086 10.3181 17.9201 10.4756 17.7626L15.7078 12.5304C16.0007 12.2375 16.0007 11.7626 15.7078 11.4697L10.4756 6.2375C10.3181 6.08 10.0488 6.19155 10.0488 6.41427L10.0488 17.5858Z" fill="white"/>
<path fill-rule="evenodd" clip-rule="evenodd" d="M12.7685 16.5303C12.4756 16.2374 12.4756 15.7626 12.7685 15.4697L15.7078 12.5303C16.0007 12.2374 16.0007 11.7626 15.7078 11.4697L12.7685 8.53033C12.4756 8.23744 12.4756 7.76256 12.7685 7.46967C13.0614 7.17678 13.5362 7.17678 13.8291 7.46967L16.7685 10.409C17.6471 11.2877 17.6471 12.7123 16.7685 13.591L13.8291 16.5303C13.5362 16.8232 13.0614 16.8232 12.7685 16.5303Z" fill="#6F5BDE"/>
</svg>
