<svg width="24" height="24" viewBox="0 0 24 24" fill="none" xmlns="http://www.w3.org/2000/svg">
<path fill-rule="evenodd" clip-rule="evenodd" d="M4.48419 8.21512C4.18349 8.49999 4.17066 8.97469 4.45554 9.27539L10.0036 15.1317C11.0883 16.2767 12.9117 16.2767 13.9964 15.1317L19.5445 9.27539C19.8293 8.97469 19.8165 8.49999 19.5158 8.21512C19.2151 7.93025 18.7404 7.94308 18.4555 8.24378L12.9074 14.1001C12.4144 14.6205 11.5856 14.6205 11.0926 14.1001L5.54447 8.24378C5.25959 7.94308 4.78489 7.93025 4.48419 8.21512Z" fill="#6F5BDE"/>
<path fill-rule="evenodd" clip-rule="evenodd" d="M4.48419 8.21512C4.18349 8.49999 4.17066 8.97469 4.45554 9.27539L10.0036 15.1317C11.0883 16.2767 12.9117 16.2767 13.9964 15.1317L14.3339 14.7754C14.6188 14.4747 14.606 14 14.3053 13.7151C14.0046 13.4302 13.5299 13.4431 13.245 13.7438L12.9074 14.1001C12.4144 14.6205 11.5856 14.6205 11.0926 14.1001L5.54447 8.24378C5.25959 7.94308 4.78489 7.93025 4.48419 8.21512Z" fill="#C0C0C0"/>
</svg>
