<svg width="36" height="36" viewBox="0 0 36 36" fill="none" xmlns="http://www.w3.org/2000/svg">
<path fill-rule="evenodd" clip-rule="evenodd" d="M20.9228 10.6963C19.6237 8.44629 16.3761 8.44629 15.0771 10.6963L8.58189 21.9463C7.28286 24.1963 8.90665 27.0088 11.5047 27.0088L24.4951 27.0088C27.0932 27.0088 28.717 24.1963 27.4179 21.9463L20.9228 10.6963ZM13.1285 9.57129C15.2936 5.82129 20.7062 5.82129 22.8713 9.57129L29.3665 20.8213C31.5316 24.5713 28.8252 29.2588 24.4951 29.2588L11.5047 29.2588C7.17461 29.2588 4.46827 24.5713 6.63334 20.8213L13.1285 9.57129Z" fill="white"/>
<path fill-rule="evenodd" clip-rule="evenodd" d="M20.9192 10.6963C19.6201 8.44629 16.3725 8.44629 15.0735 10.6963L11.8259 16.3213C11.5152 16.8594 10.8272 17.0437 10.2891 16.7331C9.75105 16.4224 9.56669 15.7344 9.87735 15.1963L13.1249 9.57129C15.29 5.82129 20.7027 5.82129 22.8677 9.57129L26.1153 15.1963C26.426 15.7344 26.2416 16.4224 25.7035 16.7331C25.1655 17.0437 24.4774 16.8594 24.1668 16.3213L20.9192 10.6963Z" fill="#6F5BDE"/>
</svg>
